<?xml version="1.0" ?>
<svg xmlns="http://www.w3.org/2000/svg" version="1.1" width="124" height="128">
  <path d="M 120,51 L 115,44 L 115,43 L 114,43 L 111,40 L 107,38 L 105,38 L 104,37 L 95,37 L 94,38 L 92,38 L 86,43 L 84,47 L 84,50 L 85,50 L 89,46 L 91,46 L 92,45 L 96,45 L 98,46 L 102,50 L 102,52 L 103,53 L 102,54 L 102,57 L 98,61 L 96,62 L 90,62 L 87,60 L 85,60 L 77,56 L 75,54 L 73,54 L 71,52 L 65,51 L 62,49 L 57,49 L 56,48 L 46,48 L 45,49 L 41,49 L 40,50 L 35,51 L 31,54 L 30,54 L 27,57 L 26,57 L 19,64 L 19,65 L 15,70 L 15,72 L 12,78 L 12,82 L 11,83 L 11,92 L 12,93 L 12,96 L 13,98 L 14,97 L 15,89 L 19,81 L 27,72 L 28,72 L 31,69 L 35,67 L 37,67 L 41,65 L 44,65 L 45,64 L 49,64 L 50,65 L 49,66 L 47,66 L 45,68 L 41,69 L 38,72 L 37,72 L 36,74 L 35,74 L 35,75 L 32,78 L 31,82 L 29,85 L 29,88 L 28,89 L 28,97 L 29,98 L 29,101 L 30,102 L 31,107 L 33,109 L 34,112 L 39,117 L 51,123 L 57,123 L 58,124 L 67,124 L 68,123 L 73,123 L 77,121 L 83,120 L 93,115 L 95,113 L 99,111 L 108,102 L 108,101 L 104,102 L 103,103 L 101,103 L 100,104 L 89,104 L 88,103 L 82,102 L 75,97 L 73,97 L 71,95 L 63,91 L 60,91 L 57,89 L 47,89 L 46,88 L 49,86 L 52,86 L 53,85 L 67,85 L 68,86 L 72,86 L 73,87 L 75,87 L 79,89 L 82,89 L 86,91 L 91,91 L 92,92 L 104,90 L 111,86 L 115,82 L 115,81 L 118,78 L 120,74 L 120,71 L 121,70 L 121,55 L 120,54 Z" fill="white"/>
  <path d="M 101,30 L 96,30 L 95,29 L 87,28 L 65,17 L 63,17 L 62,16 L 60,16 L 56,14 L 51,14 L 50,13 L 38,13 L 37,14 L 33,14 L 32,15 L 30,15 L 28,17 L 24,18 L 21,21 L 20,21 L 14,27 L 14,28 L 18,26 L 20,24 L 24,22 L 26,22 L 27,21 L 32,21 L 33,20 L 41,20 L 42,21 L 46,21 L 47,22 L 46,23 L 38,23 L 37,24 L 29,26 L 23,29 L 17,34 L 16,34 L 8,43 L 5,49 L 5,51 L 3,53 L 3,57 L 2,58 L 2,75 L 3,76 L 3,80 L 4,82 L 5,82 L 5,80 L 6,79 L 6,71 L 12,58 L 15,55 L 15,54 L 24,46 L 34,41 L 36,41 L 37,40 L 41,40 L 42,39 L 79,39 L 80,38 L 86,38 L 87,37 L 92,36 L 100,32 Z" fill="white"/>
  <path d="M 40,8 L 41,9 L 55,9 L 56,10 L 59,10 L 63,12 L 67,12 L 72,15 L 74,15 L 79,18 L 81,18 L 85,21 L 87,21 L 90,23 L 93,23 L 94,24 L 105,24 L 106,23 L 108,23 L 112,21 L 117,16 L 118,14 L 114,16 L 108,17 L 107,16 L 103,16 L 102,15 L 96,14 L 91,11 L 89,11 L 86,9 L 81,8 L 78,6 L 74,6 L 73,5 L 66,5 L 65,4 L 54,4 L 53,5 L 47,5 L 46,6 L 43,6 Z" fill="white"/>
</svg>
