<?xml version="1.0" ?>
<svg xmlns="http://www.w3.org/2000/svg" version="1.1" width="124" height="128">
  <path d="M 95,37 L 94,38 L 92,38 L 90,40 L 89,40 L 86,43 L 86,44 L 85,45 L 85,46 L 84,47 L 84,50 L 85,50 L 89,46 L 91,46 L 92,45 L 96,45 L 97,46 L 98,46 L 102,50 L 102,52 L 103,53 L 102,54 L 102,57 L 98,61 L 97,61 L 96,62 L 90,62 L 89,61 L 88,61 L 87,60 L 85,60 L 84,59 L 83,59 L 82,58 L 81,58 L 80,57 L 79,57 L 78,56 L 77,56 L 75,54 L 73,54 L 71,52 L 69,52 L 68,51 L 65,51 L 64,50 L 63,50 L 62,49 L 57,49 L 56,48 L 46,48 L 45,49 L 41,49 L 40,50 L 38,50 L 37,51 L 35,51 L 34,52 L 33,52 L 31,54 L 30,54 L 27,57 L 26,57 L 19,64 L 19,65 L 17,67 L 17,68 L 15,70 L 15,72 L 14,73 L 14,74 L 13,75 L 13,77 L 12,78 L 12,82 L 11,83 L 11,92 L 12,93 L 12,96 L 13,97 L 13,98 L 14,97 L 14,93 L 15,92 L 15,89 L 16,88 L 16,87 L 17,86 L 17,85 L 18,84 L 18,83 L 19,82 L 19,81 L 22,78 L 22,77 L 27,72 L 28,72 L 31,69 L 32,69 L 33,68 L 34,68 L 35,67 L 37,67 L 38,66 L 40,66 L 41,65 L 44,65 L 45,64 L 49,64 L 50,65 L 49,66 L 47,66 L 45,68 L 43,68 L 42,69 L 41,69 L 38,72 L 37,72 L 37,73 L 36,74 L 35,74 L 35,75 L 32,78 L 32,79 L 31,80 L 31,82 L 30,83 L 30,84 L 29,85 L 29,88 L 28,89 L 28,97 L 29,98 L 29,101 L 30,102 L 30,104 L 31,105 L 31,107 L 33,109 L 33,110 L 34,111 L 34,112 L 39,117 L 40,117 L 41,118 L 42,118 L 44,120 L 45,120 L 46,121 L 48,121 L 49,122 L 50,122 L 51,123 L 57,123 L 58,124 L 67,124 L 68,123 L 73,123 L 74,122 L 76,122 L 77,121 L 80,121 L 81,120 L 83,120 L 84,119 L 85,119 L 86,118 L 87,118 L 88,117 L 89,117 L 90,116 L 91,116 L 92,115 L 93,115 L 95,113 L 96,113 L 98,111 L 99,111 L 108,102 L 108,101 L 107,101 L 106,102 L 104,102 L 103,103 L 101,103 L 100,104 L 89,104 L 88,103 L 85,103 L 84,102 L 82,102 L 80,100 L 79,100 L 78,99 L 77,99 L 75,97 L 73,97 L 71,95 L 70,95 L 69,94 L 68,94 L 67,93 L 66,93 L 65,92 L 64,92 L 63,91 L 60,91 L 59,90 L 58,90 L 57,89 L 47,89 L 46,88 L 47,87 L 48,87 L 49,86 L 52,86 L 53,85 L 67,85 L 68,86 L 72,86 L 73,87 L 75,87 L 76,88 L 78,88 L 79,89 L 82,89 L 83,90 L 85,90 L 86,91 L 91,91 L 92,92 L 95,92 L 96,91 L 101,91 L 102,90 L 104,90 L 105,89 L 106,89 L 107,88 L 108,88 L 110,86 L 111,86 L 115,82 L 115,81 L 118,78 L 118,77 L 119,76 L 119,75 L 120,74 L 120,71 L 121,70 L 121,55 L 120,54 L 120,51 L 119,50 L 119,49 L 117,47 L 117,46 L 115,44 L 115,43 L 114,43 L 111,40 L 110,40 L 109,39 L 108,39 L 107,38 L 105,38 L 104,37 Z" fill="white"/>
  <path d="M 38,13 L 37,14 L 33,14 L 32,15 L 30,15 L 28,17 L 26,17 L 25,18 L 24,18 L 21,21 L 20,21 L 14,27 L 14,28 L 15,27 L 16,27 L 17,26 L 18,26 L 20,24 L 21,24 L 22,23 L 23,23 L 24,22 L 26,22 L 27,21 L 32,21 L 33,20 L 41,20 L 42,21 L 46,21 L 47,22 L 46,23 L 38,23 L 37,24 L 35,24 L 34,25 L 32,25 L 31,26 L 29,26 L 28,27 L 27,27 L 26,28 L 25,28 L 24,29 L 23,29 L 21,31 L 20,31 L 17,34 L 16,34 L 11,39 L 11,40 L 8,43 L 8,44 L 7,45 L 7,46 L 6,47 L 6,48 L 5,49 L 5,51 L 3,53 L 3,57 L 2,58 L 2,75 L 3,76 L 3,80 L 4,81 L 4,82 L 5,82 L 5,80 L 6,79 L 6,71 L 7,70 L 7,68 L 8,67 L 8,66 L 9,65 L 9,64 L 10,63 L 10,62 L 11,61 L 11,60 L 12,59 L 12,58 L 15,55 L 15,54 L 17,52 L 18,52 L 18,51 L 19,50 L 20,50 L 24,46 L 25,46 L 26,45 L 27,45 L 28,44 L 29,44 L 30,43 L 31,43 L 32,42 L 33,42 L 34,41 L 36,41 L 37,40 L 41,40 L 42,39 L 79,39 L 80,38 L 86,38 L 87,37 L 89,37 L 90,36 L 92,36 L 93,35 L 94,35 L 95,34 L 96,34 L 97,33 L 98,33 L 99,32 L 100,32 L 101,31 L 101,30 L 96,30 L 95,29 L 91,29 L 90,28 L 87,28 L 86,27 L 85,27 L 84,26 L 83,26 L 82,25 L 80,25 L 78,23 L 76,23 L 75,22 L 74,22 L 73,21 L 72,21 L 71,20 L 70,20 L 69,19 L 68,19 L 67,18 L 66,18 L 65,17 L 63,17 L 62,16 L 60,16 L 59,15 L 57,15 L 56,14 L 51,14 L 50,13 Z" fill="white"/>
  <path d="M 54,4 L 53,5 L 47,5 L 46,6 L 43,6 L 42,7 L 41,7 L 40,8 L 41,9 L 55,9 L 56,10 L 59,10 L 60,11 L 62,11 L 63,12 L 67,12 L 68,13 L 69,13 L 70,14 L 71,14 L 72,15 L 74,15 L 75,16 L 76,16 L 77,17 L 78,17 L 79,18 L 81,18 L 83,20 L 84,20 L 85,21 L 87,21 L 88,22 L 89,22 L 90,23 L 93,23 L 94,24 L 105,24 L 106,23 L 108,23 L 109,22 L 110,22 L 111,21 L 112,21 L 117,16 L 117,15 L 118,14 L 117,14 L 116,15 L 115,15 L 114,16 L 111,16 L 110,17 L 108,17 L 107,16 L 103,16 L 102,15 L 99,15 L 98,14 L 96,14 L 95,13 L 94,13 L 93,12 L 92,12 L 91,11 L 89,11 L 88,10 L 87,10 L 86,9 L 84,9 L 83,8 L 81,8 L 80,7 L 79,7 L 78,6 L 74,6 L 73,5 L 66,5 L 65,4 Z" fill="white"/>
</svg>
