<?xml version="1.0" ?>
<svg xmlns="http://www.w3.org/2000/svg" version="1.1" width="124" height="128">
  <path d="M 120,51 L 115,43 L 104,37 L 92,38 L 84,47 L 85,50 L 89,46 L 96,45 L 102,50 L 102,57 L 96,62 L 90,62 L 62,49 L 46,48 L 35,51 L 26,57 L 15,70 L 11,83 L 12,96 L 14,97 L 19,81 L 27,72 L 35,67 L 49,64 L 49,66 L 35,74 L 29,85 L 28,97 L 34,112 L 51,123 L 67,124 L 83,120 L 99,111 L 108,101 L 100,104 L 89,104 L 63,91 L 46,88 L 53,85 L 67,85 L 92,92 L 104,90 L 111,86 L 120,74 Z" fill="white"/>
  <path d="M 101,30 L 87,28 L 65,17 L 50,13 L 38,13 L 24,18 L 14,28 L 27,21 L 41,20 L 47,22 L 38,23 L 23,29 L 8,43 L 2,58 L 4,82 L 6,71 L 12,58 L 24,46 L 42,39 L 86,38 Z" fill="white"/>
  <path d="M 40,8 L 67,12 L 94,24 L 108,23 L 118,14 L 108,17 L 78,6 L 65,4 L 47,5 Z" fill="white"/>
</svg>
