<?xml version="1.0" ?>
<svg xmlns="http://www.w3.org/2000/svg" version="1.1" width="124" height="139">
  <path d="M 104,21 L 99,26 L 99,27 L 97,29 L 97,30 L 95,32 L 95,33 L 93,35 L 93,36 L 92,37 L 92,38 L 90,40 L 90,42 L 89,43 L 89,44 L 87,46 L 87,49 L 86,50 L 86,51 L 85,52 L 85,54 L 84,55 L 84,57 L 83,58 L 83,61 L 82,62 L 82,66 L 81,67 L 81,75 L 80,76 L 80,83 L 81,84 L 81,91 L 82,92 L 82,95 L 83,96 L 83,98 L 84,99 L 84,100 L 85,101 L 85,103 L 87,105 L 87,107 L 89,107 L 91,105 L 92,105 L 94,103 L 94,102 L 97,99 L 97,98 L 99,96 L 99,95 L 100,94 L 100,93 L 101,92 L 101,90 L 102,89 L 102,88 L 103,87 L 103,85 L 104,84 L 104,81 L 105,80 L 105,76 L 106,75 L 106,58 L 107,57 L 108,58 L 108,60 L 109,61 L 109,63 L 110,64 L 110,70 L 111,71 L 111,88 L 110,89 L 110,93 L 109,94 L 109,96 L 108,97 L 108,98 L 107,99 L 107,101 L 106,102 L 106,103 L 104,105 L 104,106 L 102,108 L 102,109 L 93,118 L 92,118 L 89,121 L 88,121 L 87,122 L 86,122 L 85,123 L 84,123 L 83,124 L 82,124 L 81,125 L 80,125 L 79,126 L 77,126 L 76,127 L 74,127 L 73,128 L 70,128 L 69,129 L 65,129 L 64,130 L 43,130 L 44,131 L 47,131 L 48,132 L 51,132 L 52,133 L 70,133 L 71,132 L 74,132 L 75,131 L 78,131 L 79,130 L 81,130 L 82,129 L 84,129 L 85,128 L 86,128 L 87,127 L 88,127 L 89,126 L 90,126 L 91,125 L 92,125 L 93,124 L 94,124 L 96,122 L 97,122 L 108,111 L 108,110 L 110,108 L 110,107 L 112,105 L 112,104 L 113,103 L 113,102 L 114,101 L 114,100 L 115,99 L 115,97 L 117,95 L 117,92 L 118,91 L 118,89 L 119,88 L 119,85 L 120,84 L 120,65 L 119,64 L 119,60 L 118,59 L 118,57 L 117,56 L 117,54 L 116,53 L 116,52 L 115,51 L 115,49 L 114,48 L 114,47 L 112,45 L 112,44 L 111,43 L 111,42 L 109,40 L 109,38 L 107,36 L 107,35 L 106,34 L 106,33 L 105,32 L 105,31 L 104,30 Z" fill="limegreen"/>
  <path d="M 81,6 L 80,7 L 79,7 L 76,10 L 75,10 L 73,12 L 73,13 L 70,16 L 70,17 L 69,18 L 69,19 L 67,21 L 67,23 L 66,24 L 66,26 L 65,27 L 65,30 L 64,31 L 64,43 L 65,44 L 65,47 L 66,48 L 66,49 L 67,50 L 67,51 L 69,51 L 69,50 L 72,47 L 72,46 L 74,44 L 74,43 L 75,42 L 75,40 L 76,39 L 76,37 L 77,36 L 77,33 L 78,32 L 78,28 L 80,26 L 81,27 L 81,37 L 80,38 L 80,41 L 79,42 L 79,45 L 78,46 L 78,48 L 77,49 L 77,51 L 76,52 L 77,52 L 78,51 L 78,50 L 80,48 L 80,47 L 81,46 L 81,45 L 83,43 L 83,41 L 84,40 L 84,36 L 85,35 L 85,25 L 84,24 L 84,20 L 83,19 L 83,17 L 82,16 L 82,13 L 81,12 L 81,10 L 82,9 L 82,6 Z" fill="limegreen"/>
  <path d="M 36,5 L 37,6 L 37,10 L 36,11 L 36,14 L 34,16 L 34,17 L 32,19 L 32,20 L 24,28 L 24,29 L 16,37 L 16,38 L 13,41 L 13,42 L 12,43 L 12,44 L 10,46 L 10,47 L 9,48 L 9,49 L 8,50 L 8,51 L 7,52 L 7,54 L 6,55 L 6,56 L 5,57 L 5,59 L 4,60 L 4,64 L 3,65 L 3,80 L 4,81 L 4,85 L 5,86 L 5,88 L 6,89 L 6,91 L 7,92 L 7,93 L 8,94 L 8,95 L 9,96 L 9,97 L 10,98 L 10,99 L 12,101 L 12,102 L 14,104 L 14,105 L 19,110 L 19,111 L 20,111 L 21,112 L 21,113 L 22,114 L 23,114 L 26,117 L 27,117 L 29,119 L 30,119 L 31,120 L 32,120 L 34,122 L 35,122 L 36,123 L 39,123 L 40,124 L 42,124 L 43,125 L 59,125 L 60,124 L 62,124 L 63,123 L 66,123 L 67,122 L 68,122 L 69,121 L 71,121 L 72,120 L 73,120 L 74,119 L 75,119 L 77,117 L 78,117 L 77,117 L 76,116 L 74,116 L 73,115 L 71,115 L 70,114 L 69,114 L 68,113 L 67,113 L 60,106 L 60,105 L 58,103 L 58,102 L 57,101 L 57,99 L 56,98 L 56,96 L 55,95 L 55,85 L 56,84 L 56,80 L 56,81 L 55,82 L 55,83 L 54,84 L 54,85 L 53,86 L 53,88 L 52,89 L 52,90 L 51,91 L 51,102 L 52,103 L 52,106 L 53,107 L 53,108 L 54,109 L 54,111 L 55,112 L 55,113 L 57,115 L 57,117 L 56,118 L 50,118 L 49,117 L 44,117 L 43,116 L 41,116 L 40,115 L 38,115 L 37,114 L 36,114 L 35,113 L 34,113 L 33,112 L 32,112 L 23,103 L 23,102 L 21,100 L 21,99 L 20,98 L 20,97 L 19,96 L 19,95 L 18,94 L 18,92 L 17,91 L 17,87 L 16,86 L 16,72 L 17,71 L 17,67 L 18,66 L 18,64 L 19,63 L 19,61 L 20,60 L 20,58 L 21,57 L 21,56 L 22,55 L 22,54 L 24,52 L 24,51 L 25,50 L 25,49 L 26,48 L 26,47 L 29,44 L 29,43 L 30,42 L 31,42 L 32,43 L 31,44 L 31,45 L 30,46 L 30,48 L 29,49 L 29,51 L 28,52 L 28,55 L 27,56 L 27,61 L 26,62 L 26,73 L 27,74 L 27,80 L 28,81 L 28,83 L 29,84 L 29,86 L 30,87 L 30,88 L 31,89 L 31,90 L 33,92 L 33,93 L 36,96 L 36,97 L 39,100 L 40,100 L 41,101 L 41,91 L 42,90 L 42,88 L 43,87 L 43,85 L 44,84 L 44,83 L 45,82 L 45,81 L 46,80 L 46,79 L 47,78 L 47,77 L 48,76 L 48,75 L 50,73 L 50,72 L 51,71 L 51,70 L 53,68 L 53,67 L 54,66 L 54,65 L 55,64 L 55,62 L 56,61 L 56,59 L 57,58 L 57,55 L 58,54 L 58,38 L 57,37 L 57,33 L 56,32 L 56,31 L 55,30 L 55,28 L 54,27 L 54,26 L 53,25 L 53,24 L 52,23 L 52,22 L 51,21 L 51,20 L 49,18 L 49,17 L 46,14 L 46,13 L 38,5 Z" fill="limegreen"/>
</svg>
