<?xml version="1.0" ?>
<svg xmlns="http://www.w3.org/2000/svg" version="1.1" width="124" height="139">
  <path d="M 104,21 L 99,26 L 99,27 L 93,35 L 92,38 L 90,40 L 89,44 L 87,46 L 87,49 L 85,52 L 85,54 L 83,58 L 83,61 L 82,62 L 82,66 L 81,67 L 80,83 L 81,84 L 81,91 L 82,92 L 82,95 L 85,101 L 85,103 L 87,105 L 87,107 L 89,107 L 91,105 L 92,105 L 99,96 L 101,92 L 101,90 L 103,87 L 103,85 L 104,84 L 105,76 L 106,75 L 106,58 L 107,57 L 108,58 L 108,60 L 110,64 L 110,70 L 111,71 L 111,88 L 110,89 L 110,93 L 109,94 L 109,96 L 107,99 L 106,103 L 104,105 L 102,109 L 93,118 L 92,118 L 89,121 L 79,126 L 77,126 L 73,128 L 70,128 L 69,129 L 65,129 L 64,130 L 43,130 L 44,131 L 47,131 L 48,132 L 51,132 L 52,133 L 70,133 L 71,132 L 74,132 L 75,131 L 78,131 L 79,130 L 84,129 L 97,122 L 108,111 L 108,110 L 112,105 L 115,99 L 115,97 L 117,95 L 117,92 L 118,91 L 119,85 L 120,84 L 120,65 L 119,64 L 119,60 L 118,59 L 117,54 L 115,51 L 115,49 L 112,45 L 111,42 L 109,40 L 109,38 L 107,36 L 104,30 Z" fill="limegreen"/>
  <path d="M 82,6 L 79,7 L 76,10 L 75,10 L 70,16 L 69,19 L 67,21 L 67,23 L 65,27 L 65,30 L 64,31 L 64,43 L 65,44 L 65,47 L 67,51 L 69,51 L 69,50 L 74,44 L 75,40 L 76,39 L 76,37 L 77,36 L 78,28 L 80,26 L 81,27 L 81,37 L 80,38 L 79,45 L 78,46 L 78,48 L 76,52 L 78,51 L 81,45 L 83,43 L 83,41 L 84,40 L 84,36 L 85,35 L 85,25 L 84,24 L 84,20 L 83,19 L 82,13 L 81,12 Z" fill="limegreen"/>
  <path d="M 36,5 L 37,6 L 36,14 L 34,16 L 32,20 L 16,37 L 16,38 L 13,41 L 12,44 L 10,46 L 7,52 L 7,54 L 4,60 L 4,64 L 3,65 L 3,80 L 4,81 L 4,85 L 5,86 L 6,91 L 10,99 L 12,101 L 14,105 L 19,110 L 19,111 L 21,112 L 22,114 L 23,114 L 26,117 L 27,117 L 29,119 L 32,120 L 36,123 L 39,123 L 43,125 L 59,125 L 60,124 L 66,123 L 69,121 L 71,121 L 78,117 L 74,116 L 73,115 L 71,115 L 67,113 L 60,106 L 60,105 L 58,103 L 57,99 L 56,98 L 56,96 L 55,95 L 55,85 L 56,84 L 56,80 L 53,86 L 53,88 L 51,91 L 51,102 L 52,103 L 52,106 L 54,109 L 54,111 L 57,115 L 57,117 L 56,118 L 44,117 L 43,116 L 38,115 L 32,112 L 23,103 L 23,102 L 21,100 L 18,94 L 18,92 L 17,91 L 17,87 L 16,86 L 16,72 L 17,71 L 17,67 L 18,66 L 20,58 L 22,54 L 24,52 L 26,47 L 29,44 L 29,43 L 31,42 L 32,43 L 30,46 L 30,48 L 28,52 L 28,55 L 27,56 L 27,61 L 26,62 L 26,73 L 27,74 L 27,80 L 28,81 L 28,83 L 29,84 L 29,86 L 31,90 L 36,96 L 36,97 L 41,101 L 41,91 L 42,90 L 43,85 L 48,75 L 50,73 L 51,70 L 53,68 L 55,64 L 55,62 L 57,58 L 57,55 L 58,54 L 58,38 L 57,37 L 57,33 L 55,30 L 55,28 L 51,20 L 46,14 L 46,13 L 38,5 Z" fill="limegreen"/>
</svg>
