<?xml version="1.0" ?>
<svg xmlns="http://www.w3.org/2000/svg" version="1.1" width="124" height="139">
  <path d="M 104,21 L 87,46 L 81,67 L 80,83 L 87,107 L 92,105 L 99,96 L 104,84 L 107,57 L 111,71 L 111,88 L 106,103 L 93,118 L 79,126 L 64,130 L 44,131 L 70,133 L 84,129 L 97,122 L 112,105 L 120,84 L 120,65 L 115,49 L 104,30 Z" fill="limegreen"/>
  <path d="M 82,6 L 75,10 L 67,21 L 64,31 L 64,43 L 67,51 L 74,44 L 80,26 L 81,37 L 76,52 L 83,43 L 85,25 L 81,12 Z" fill="limegreen"/>
  <path d="M 36,5 L 36,14 L 16,37 L 7,52 L 3,65 L 3,80 L 10,99 L 22,114 L 36,123 L 59,125 L 78,117 L 67,113 L 58,103 L 55,95 L 56,80 L 51,91 L 51,102 L 57,115 L 56,118 L 44,117 L 32,112 L 21,100 L 16,86 L 16,72 L 20,58 L 31,42 L 26,62 L 27,80 L 31,90 L 41,101 L 43,85 L 55,64 L 58,54 L 58,38 L 55,28 L 46,13 Z" fill="limegreen"/>
</svg>
