<?xml version="1.0" ?>
<svg xmlns="http://www.w3.org/2000/svg" version="1.1" width="123" height="138">
  <path d="M 51,13 L 47,15 L 41,21 L 41,22 L 36,29 L 36,32 L 34,36 L 34,51 L 36,55 L 36,58 L 37,59 L 37,61 L 39,65 L 39,69 L 40,70 L 40,75 L 39,76 L 39,79 L 38,81 L 33,85 L 27,85 L 21,82 L 20,80 L 19,80 L 17,78 L 12,69 L 12,66 L 11,65 L 11,50 L 12,49 L 12,43 L 10,45 L 6,53 L 6,55 L 5,56 L 5,58 L 3,62 L 3,66 L 2,67 L 2,82 L 3,83 L 4,91 L 6,94 L 6,96 L 10,104 L 13,107 L 13,108 L 22,117 L 32,122 L 35,122 L 36,123 L 42,123 L 43,124 L 46,124 L 47,123 L 54,123 L 55,122 L 57,122 L 61,120 L 64,117 L 65,117 L 68,114 L 68,113 L 71,109 L 71,107 L 73,103 L 73,89 L 72,88 L 72,84 L 71,83 L 71,81 L 73,80 L 78,86 L 82,94 L 82,96 L 84,100 L 84,117 L 83,118 L 82,123 L 79,129 L 77,131 L 77,132 L 81,132 L 94,126 L 98,122 L 99,122 L 108,113 L 108,112 L 111,109 L 112,106 L 114,104 L 114,102 L 117,98 L 117,94 L 119,91 L 119,88 L 120,87 L 120,65 L 119,64 L 119,60 L 117,56 L 117,53 L 114,49 L 114,47 L 112,45 L 111,42 L 109,40 L 105,32 L 104,27 L 102,26 L 102,27 L 97,33 L 96,37 L 95,38 L 95,40 L 94,41 L 94,43 L 93,44 L 93,63 L 98,73 L 97,74 L 94,74 L 93,73 L 85,71 L 75,66 L 72,63 L 71,63 L 61,53 L 61,52 L 57,47 L 57,45 L 56,44 L 56,42 L 54,39 L 54,36 L 53,35 L 53,30 L 52,29 L 52,17 L 53,15 L 52,13 Z" fill="orange"/>
  <path d="M 72,2 L 72,13 L 71,14 L 70,19 L 68,22 L 68,25 L 67,26 L 67,31 L 66,32 L 67,40 L 68,41 L 68,43 L 70,47 L 72,49 L 74,53 L 76,54 L 82,60 L 84,60 L 83,59 L 83,55 L 82,54 L 82,43 L 83,42 L 83,38 L 84,37 L 84,33 L 85,32 L 85,20 L 80,10 L 77,7 L 77,6 L 73,2 Z" fill="orange"/>
</svg>
