<?xml version="1.0" ?>
<svg xmlns="http://www.w3.org/2000/svg" version="1.1" width="123" height="138">
  <path d="M 51,13 L 41,21 L 34,36 L 34,51 L 40,70 L 38,81 L 33,85 L 27,85 L 17,78 L 11,65 L 12,43 L 6,53 L 2,67 L 4,91 L 10,104 L 22,117 L 36,123 L 54,123 L 65,117 L 71,109 L 73,103 L 71,81 L 73,80 L 84,100 L 84,117 L 77,131 L 81,132 L 99,122 L 114,104 L 120,87 L 119,60 L 102,26 L 93,44 L 93,63 L 98,73 L 94,74 L 75,66 L 57,47 L 53,35 L 53,15 Z" fill="orange"/>
  <path d="M 72,2 L 72,13 L 66,32 L 67,40 L 74,53 L 84,60 L 82,43 L 85,32 L 85,20 L 80,10 Z" fill="orange"/>
</svg>
