<?xml version="1.0" ?>
<svg xmlns="http://www.w3.org/2000/svg" version="1.1" width="122" height="145">
  <path d="M 50,59 L 49,60 L 48,60 L 45,63 L 45,64 L 44,65 L 44,71 L 46,73 L 46,74 L 47,75 L 48,75 L 49,76 L 50,76 L 51,77 L 55,77 L 56,76 L 57,76 L 58,75 L 59,75 L 60,74 L 60,73 L 61,72 L 61,71 L 62,70 L 62,66 L 61,65 L 61,64 L 60,63 L 60,62 L 58,60 L 56,60 L 55,59 Z" fill="deepskyblue"/>
  <path d="M 57,24 L 56,25 L 51,25 L 50,26 L 47,26 L 46,27 L 44,27 L 43,28 L 42,28 L 41,29 L 40,29 L 39,30 L 38,30 L 33,35 L 33,36 L 32,37 L 32,40 L 31,41 L 31,43 L 32,44 L 32,47 L 33,48 L 33,49 L 37,53 L 38,53 L 39,54 L 40,54 L 41,55 L 49,55 L 50,54 L 51,54 L 53,52 L 54,52 L 56,50 L 57,50 L 58,49 L 59,49 L 61,47 L 64,47 L 65,46 L 68,46 L 69,45 L 82,45 L 83,46 L 84,46 L 85,47 L 87,47 L 88,48 L 89,48 L 90,49 L 91,49 L 92,50 L 93,50 L 98,55 L 98,56 L 102,60 L 102,61 L 103,62 L 103,63 L 104,64 L 104,66 L 105,67 L 105,69 L 106,70 L 106,84 L 105,85 L 105,86 L 104,87 L 104,89 L 102,91 L 102,92 L 101,93 L 101,94 L 100,95 L 100,96 L 95,101 L 94,101 L 92,103 L 91,103 L 89,105 L 88,105 L 87,106 L 85,106 L 84,107 L 82,107 L 81,108 L 80,107 L 80,105 L 84,101 L 84,100 L 86,98 L 86,97 L 88,95 L 88,93 L 89,92 L 89,91 L 90,90 L 90,85 L 91,84 L 91,79 L 90,78 L 90,73 L 89,72 L 89,70 L 88,69 L 88,68 L 87,67 L 87,66 L 84,63 L 84,62 L 81,59 L 80,59 L 78,57 L 77,57 L 76,56 L 76,63 L 77,64 L 77,68 L 76,69 L 76,73 L 75,74 L 75,76 L 73,78 L 73,79 L 66,86 L 65,86 L 64,87 L 63,87 L 62,88 L 61,88 L 60,89 L 57,89 L 56,90 L 52,90 L 51,91 L 47,91 L 46,90 L 41,90 L 40,89 L 38,89 L 37,88 L 34,88 L 32,86 L 31,86 L 30,85 L 29,85 L 25,81 L 24,81 L 20,77 L 20,76 L 17,73 L 17,72 L 15,70 L 15,69 L 14,68 L 14,66 L 13,65 L 13,64 L 12,63 L 12,61 L 11,60 L 11,57 L 10,56 L 10,50 L 9,49 L 9,46 L 7,48 L 7,50 L 6,51 L 6,53 L 5,54 L 5,57 L 4,58 L 4,64 L 3,65 L 3,75 L 4,76 L 4,83 L 5,84 L 5,85 L 6,86 L 6,88 L 7,89 L 7,91 L 8,92 L 8,93 L 9,94 L 9,95 L 10,96 L 10,97 L 12,99 L 12,100 L 14,102 L 14,103 L 18,107 L 18,108 L 22,112 L 23,112 L 26,115 L 27,115 L 29,117 L 30,117 L 31,118 L 32,118 L 33,119 L 34,119 L 35,120 L 36,120 L 37,121 L 39,121 L 40,122 L 41,122 L 42,123 L 45,123 L 46,124 L 50,124 L 51,125 L 61,125 L 62,126 L 61,127 L 54,127 L 55,128 L 54,129 L 44,129 L 43,128 L 37,128 L 36,127 L 33,127 L 32,126 L 30,126 L 29,125 L 27,125 L 26,124 L 24,124 L 23,123 L 22,123 L 21,122 L 20,122 L 19,121 L 17,121 L 15,119 L 13,119 L 14,120 L 14,121 L 19,126 L 20,126 L 24,130 L 25,130 L 27,132 L 28,132 L 29,133 L 30,133 L 31,134 L 32,134 L 33,135 L 34,135 L 35,136 L 37,136 L 38,137 L 39,137 L 40,138 L 43,138 L 44,139 L 47,139 L 48,140 L 59,140 L 60,141 L 61,140 L 68,140 L 69,139 L 73,139 L 74,138 L 77,138 L 78,137 L 79,137 L 80,136 L 82,136 L 83,135 L 84,135 L 85,134 L 86,134 L 87,133 L 88,133 L 89,132 L 90,132 L 92,130 L 93,130 L 94,129 L 95,129 L 108,116 L 108,115 L 110,113 L 110,112 L 111,111 L 111,110 L 112,109 L 112,108 L 113,107 L 113,106 L 114,105 L 114,103 L 115,102 L 115,101 L 116,100 L 116,98 L 117,97 L 117,92 L 118,91 L 118,72 L 117,71 L 117,66 L 116,65 L 116,63 L 115,62 L 115,60 L 114,59 L 114,58 L 113,57 L 113,56 L 112,55 L 112,54 L 111,53 L 111,52 L 109,50 L 109,49 L 98,38 L 97,38 L 93,34 L 92,34 L 91,33 L 90,33 L 88,31 L 87,31 L 86,30 L 84,30 L 82,28 L 80,28 L 79,27 L 77,27 L 76,26 L 73,26 L 72,25 L 66,25 L 65,24 Z" fill="deepskyblue"/>
  <path d="M 36,14 L 35,15 L 34,15 L 33,16 L 32,16 L 32,22 L 34,24 L 38,24 L 40,22 L 40,21 L 41,20 L 41,18 L 40,17 L 40,16 L 39,15 L 37,15 Z" fill="deepskyblue"/>
  <path d="M 65,3 L 64,4 L 63,4 L 60,7 L 60,14 L 63,17 L 64,17 L 65,18 L 68,18 L 69,19 L 71,19 L 72,20 L 75,20 L 76,21 L 78,21 L 79,22 L 80,22 L 81,23 L 83,23 L 84,24 L 85,24 L 86,25 L 87,25 L 88,26 L 89,26 L 90,27 L 91,27 L 93,29 L 94,29 L 95,30 L 96,30 L 100,34 L 102,34 L 102,33 L 100,31 L 100,30 L 99,29 L 99,28 L 97,26 L 97,25 L 96,24 L 96,23 L 91,18 L 91,17 L 85,11 L 84,11 L 81,8 L 80,8 L 79,7 L 78,7 L 76,5 L 74,5 L 73,4 L 70,4 L 69,3 Z" fill="deepskyblue"/>
</svg>
