<?xml version="1.0" ?>
<svg xmlns="http://www.w3.org/2000/svg" version="1.1" width="122" height="145">
  <path d="M 50,59 L 45,63 L 44,71 L 47,75 L 55,77 L 60,74 L 62,66 L 58,60 Z" fill="deepskyblue"/>
  <path d="M 65,24 L 51,25 L 38,30 L 32,37 L 32,47 L 41,55 L 49,55 L 61,47 L 82,45 L 93,50 L 98,55 L 106,70 L 106,84 L 100,96 L 89,105 L 80,107 L 90,90 L 91,79 L 87,66 L 76,56 L 77,68 L 73,79 L 66,86 L 51,91 L 34,88 L 20,77 L 12,63 L 9,46 L 4,58 L 4,83 L 10,97 L 18,108 L 37,121 L 62,126 L 54,127 L 54,129 L 44,129 L 24,124 L 13,119 L 27,132 L 48,140 L 73,139 L 95,129 L 110,113 L 118,91 L 117,66 L 109,49 L 88,31 Z" fill="deepskyblue"/>
  <path d="M 39,15 L 32,16 L 34,24 L 40,22 L 41,18 Z" fill="deepskyblue"/>
  <path d="M 60,7 L 60,14 L 63,17 L 83,23 L 102,34 L 96,23 L 81,8 L 69,3 L 65,3 Z" fill="deepskyblue"/>
</svg>
