<?xml version="1.0" ?>
<svg xmlns="http://www.w3.org/2000/svg" version="1.1" width="122" height="145">
  <path d="M 50,59 L 45,63 L 44,65 L 44,71 L 47,75 L 51,77 L 55,77 L 60,74 L 62,70 L 62,66 L 60,62 L 58,60 L 56,60 L 55,59 Z" fill="deepskyblue"/>
  <path d="M 65,24 L 57,24 L 56,25 L 51,25 L 50,26 L 44,27 L 38,30 L 33,35 L 32,37 L 32,40 L 31,41 L 32,47 L 33,49 L 37,53 L 41,55 L 49,55 L 56,50 L 59,49 L 61,47 L 64,47 L 65,46 L 68,46 L 69,45 L 82,45 L 85,47 L 87,47 L 93,50 L 98,55 L 98,56 L 102,60 L 104,64 L 105,69 L 106,70 L 106,84 L 100,96 L 95,101 L 94,101 L 89,105 L 85,106 L 84,107 L 82,107 L 81,108 L 80,107 L 80,105 L 84,101 L 84,100 L 88,95 L 88,93 L 90,90 L 91,79 L 90,78 L 90,73 L 89,72 L 89,70 L 87,66 L 84,63 L 84,62 L 78,57 L 76,56 L 76,63 L 77,64 L 77,68 L 76,69 L 76,73 L 75,74 L 75,76 L 73,78 L 73,79 L 66,86 L 60,89 L 52,90 L 51,91 L 41,90 L 37,88 L 34,88 L 32,86 L 29,85 L 20,77 L 20,76 L 15,70 L 14,66 L 12,63 L 11,57 L 10,56 L 10,50 L 9,49 L 9,46 L 7,48 L 7,50 L 5,54 L 5,57 L 4,58 L 4,64 L 3,65 L 3,75 L 4,76 L 4,83 L 6,86 L 7,91 L 10,97 L 12,99 L 14,103 L 18,107 L 18,108 L 26,115 L 37,121 L 39,121 L 42,123 L 45,123 L 46,124 L 50,124 L 51,125 L 61,125 L 62,126 L 61,127 L 54,127 L 55,128 L 54,129 L 44,129 L 43,128 L 37,128 L 36,127 L 33,127 L 32,126 L 24,124 L 19,121 L 17,121 L 15,119 L 13,119 L 14,121 L 19,126 L 20,126 L 27,132 L 35,136 L 37,136 L 40,138 L 43,138 L 44,139 L 47,139 L 48,140 L 59,140 L 60,141 L 61,140 L 68,140 L 69,139 L 73,139 L 74,138 L 77,138 L 80,136 L 82,136 L 90,132 L 92,130 L 95,129 L 108,116 L 108,115 L 110,113 L 114,105 L 114,103 L 116,100 L 116,98 L 117,97 L 117,92 L 118,91 L 118,72 L 117,71 L 117,66 L 116,65 L 115,60 L 109,49 L 98,38 L 97,38 L 93,34 L 90,33 L 88,31 L 84,30 L 82,28 L 80,28 L 76,26 L 73,26 L 72,25 L 66,25 Z" fill="deepskyblue"/>
  <path d="M 39,15 L 37,15 L 36,14 L 32,16 L 32,22 L 34,24 L 38,24 L 40,22 L 41,18 Z" fill="deepskyblue"/>
  <path d="M 60,7 L 60,14 L 63,17 L 65,18 L 68,18 L 72,20 L 75,20 L 81,23 L 83,23 L 91,27 L 93,29 L 96,30 L 100,34 L 102,34 L 99,28 L 97,26 L 96,23 L 91,18 L 91,17 L 81,8 L 78,7 L 76,5 L 70,4 L 69,3 L 65,3 Z" fill="deepskyblue"/>
</svg>
